<svg width="260" height="42" viewBox="0 0 260 42" fill="none" xmlns="http://www.w3.org/2000/svg">
<g clip-path="url(#clip0_13_38)">
<g clip-path="url(#clip1_13_38)">
<path d="M39.1851 29.1748C37.2339 31.4511 34.7562 32.5816 31.7366 32.5816C27.4471 32.5816 24.6597 30.2588 24.6597 26.759C24.6597 23.1664 27.3077 20.7971 31.783 19.868C33.2232 19.5428 35.6544 19.2176 39.0922 18.8459V17.1735C39.0922 14.6184 36.9087 12.6981 33.8736 12.6981C30.9468 12.6981 28.8408 14.1383 28.8408 16.0585C28.8408 16.2908 28.8872 16.4766 28.9337 16.6624L25.4339 17.3438C25.2946 16.9722 25.2481 16.5076 25.2481 15.9501C25.2481 12.1252 28.9801 9.29133 34.1368 9.29133C39.1232 9.29133 42.7932 12.4194 42.7932 16.6934V27.6882C42.7932 28.6173 43.4436 29.3141 44.3728 29.3141C45.6271 29.3141 46.5098 27.6882 46.5098 25.4892L49.6843 26.2325C49.6843 29.8716 47.2221 32.5661 44.0011 32.5661C41.5544 32.5816 39.6032 31.1724 39.1851 29.1748ZM39.0922 25.7834V21.6798C35.6854 22.0979 33.2232 22.516 31.6901 22.9341C29.6925 23.4916 28.5156 24.8388 28.5156 26.3409C28.5156 28.1527 29.9557 29.3761 32.1547 29.3761C34.8956 29.3606 37.4507 28.0134 39.0922 25.7834Z" fill="black"/>
<path d="M85.8119 25.3653L81.1663 11.5677V32.117H77.8059V9.75589H84.4182L88.8936 23.2128L93.2295 9.75589H99.7954V32.117H96.435V11.6142L91.588 25.3653H85.8119Z" fill="black"/>
<path d="M121.351 32.117V11.6142L111.657 32.117H105.974V9.75589H109.52V28.7102L118.595 9.75589H124.882V32.117H121.351Z" fill="black"/>
<path d="M147.506 32.117L138.804 22.6089H134.746C134.746 27.9669 134.746 31.1259 134.793 32.117H131.061C131.107 29.8871 131.107 26.1551 131.107 20.9365C131.107 15.7178 131.107 12.0013 131.061 9.75589H134.793C134.746 11.6606 134.746 14.7887 134.746 19.1711H138.896L147.321 9.75589H151.982L142.241 20.6113L152.725 32.117H147.506Z" fill="black"/>
<path d="M174.436 25.6905C172.81 29.9336 168.846 32.5816 164.138 32.5816C157.758 32.5816 153.004 27.7811 153.004 20.9365C153.004 14.1383 157.758 9.29133 164.138 9.29133C169.45 9.29133 173.693 12.5588 174.9 17.6226L171.463 18.7375C170.673 15.2378 167.777 12.9614 164.2 12.9614C159.864 12.9614 156.659 16.3218 156.659 20.921C156.659 25.5357 159.879 28.8805 164.2 28.8805C167.328 28.8805 169.93 27.0687 171.045 24.1265L174.436 25.6905Z" fill="black"/>
<path d="M15.5697 32.086V22.3921H3.83163V32.086H0.0996094V9.72492H3.83163V18.9543H15.5697V9.72492H19.2862V32.086H15.5697Z" fill="black"/>
<path d="M12.4725 38.9771C12.4725 40.5102 11.2337 41.749 9.70062 41.749C8.16755 41.749 6.92871 40.5102 6.92871 38.9771C6.92871 37.444 8.16755 36.2052 9.70062 36.2052C11.2337 36.2052 12.4725 37.444 12.4725 38.9771Z" fill="black"/>
<path d="M12.4725 2.84934C12.4725 4.38241 11.2337 5.62125 9.70062 5.62125C8.16755 5.62125 6.92871 4.38241 6.92871 2.84934C6.92871 1.31627 8.16755 0.0774269 9.70062 0.0774269C11.2337 0.0774269 12.4725 1.31627 12.4725 2.84934Z" fill="black"/>
<path d="M67.6475 0.0619431C67.6475 3.17454 65.1389 5.63674 62.0263 5.63674C59.0066 5.63674 56.405 3.17454 56.405 0.0619431H59.3008C59.3008 3.60813 64.7363 3.60813 64.7363 0.0619431H67.6475Z" fill="black"/>
<path d="M67.9417 32.1635V11.6761L58.2633 32.1635H52.5801V9.80235H56.1108V28.7567L65.2008 9.80235H71.4879V32.1635H67.9417Z" fill="black"/>
<path d="M181.559 13.7512C181.559 11.227 183.386 9.38424 185.88 9.38424C187.97 9.38424 189.55 10.6541 189.952 12.6052H188.435C188.032 11.4748 187.087 10.8244 185.895 10.8244C184.269 10.8244 183.092 11.9858 183.092 13.7666C183.092 15.532 184.269 16.7089 185.895 16.7089C187.165 16.7089 188.094 16.0121 188.466 14.8042H189.999C189.596 16.8173 188.017 18.1336 185.926 18.1336C183.371 18.1181 181.559 16.3063 181.559 13.7512Z" fill="black"/>
<path d="M191.098 9.55458H196.023V10.9638H192.6V13.0079H195.713V14.3861H192.6V16.554H196.147V17.9632H191.083V9.55458H191.098Z" fill="black"/>
<path d="M200.544 9.55458C202.279 9.55458 203.471 10.747 203.471 12.3729C203.471 13.9834 202.279 15.1758 200.544 15.1758H198.934V17.9477H197.416V9.55458H200.544ZM200.42 13.7821C201.365 13.7821 201.938 13.2092 201.938 12.3729C201.938 11.5212 201.365 10.9638 200.42 10.9638H198.949V13.7821H200.42Z" fill="black"/>
<path d="M210.564 15.5785C210.564 16.9257 209.526 17.9477 207.823 17.9477H204.447V9.55458H207.776C209.402 9.55458 210.331 10.4837 210.331 11.769C210.331 12.5278 209.944 13.2092 209.309 13.5963C210.114 13.9215 210.564 14.6493 210.564 15.5785ZM207.652 10.9018H205.964V12.9769H207.652C208.38 12.9769 208.798 12.5743 208.798 11.9394C208.814 11.3199 208.396 10.9018 207.652 10.9018ZM207.745 16.585C208.566 16.585 209.03 16.1359 209.03 15.4391C209.03 14.7422 208.581 14.2932 207.745 14.2932H205.964V16.6005H207.745V16.585Z" fill="black"/>
<path d="M213.196 15.3152L217.052 9.55458H218.492V17.9477H216.975V12.1871L213.119 17.9477H211.678V9.55458H213.196V15.3152Z" fill="black"/>
<path d="M219.638 13.7512C219.638 11.227 221.465 9.38424 223.958 9.38424C226.049 9.38424 227.628 10.6541 228.031 12.6052H226.514C226.111 11.4748 225.166 10.8244 223.974 10.8244C222.348 10.8244 221.171 11.9858 221.171 13.7666C221.171 15.532 222.348 16.7089 223.974 16.7089C225.244 16.7089 226.173 16.0121 226.544 14.8042H228.078C227.675 16.8173 226.095 18.1336 224.005 18.1336C221.45 18.1181 219.638 16.3063 219.638 13.7512Z" fill="black"/>
<path d="M181.962 23.9407H188.543V32.3338H187.025V25.3653H183.479V32.3338H181.962V23.9407Z" fill="black"/>
<path d="M189.705 28.1527C189.705 25.675 191.578 23.7858 194.149 23.7858C196.704 23.7858 198.593 25.675 198.593 28.1527C198.593 30.6304 196.704 32.5196 194.149 32.5196C191.578 32.5196 189.705 30.6304 189.705 28.1527ZM197.045 28.1527C197.045 26.4648 195.79 25.2105 194.149 25.2105C192.476 25.2105 191.238 26.4648 191.238 28.1527C191.238 29.8406 192.492 31.095 194.149 31.095C195.79 31.0795 197.045 29.8406 197.045 28.1527Z" fill="black"/>
<path d="M206.088 30.9246H207.017V33.9288H205.546V32.3338H200.095V33.9288H198.609V30.9246H199.29C200.064 30.3826 200.219 29.3141 200.668 23.9407H206.104V30.9246H206.088ZM202.015 25.3653C201.721 29.0044 201.504 30.2897 200.885 30.9246H204.555V25.3653H202.015Z" fill="black"/>
<path d="M211.075 23.9407C212.809 23.9407 214.001 25.133 214.001 26.759C214.001 28.3695 212.809 29.5619 211.075 29.5619H209.464V32.3338H207.947V23.9407H211.075ZM210.935 28.1837C211.88 28.1837 212.453 27.6107 212.453 26.7745C212.453 25.9228 211.88 25.3653 210.935 25.3653H209.464V28.1837H210.935Z" fill="black"/>
<path d="M220.056 32.3493L219.359 30.6149H215.751L215.07 32.3493H213.444L216.82 23.9561H218.306L221.682 32.3493H220.056ZM216.247 29.2522H218.864L217.563 25.8763L216.247 29.2522Z" fill="black"/>
<path d="M225.492 27.1307C227.211 27.1307 228.294 28.2147 228.294 29.7168C228.294 31.2498 227.211 32.3338 225.492 32.3338H222.364V23.9407H227.66V25.3189H223.866V27.1307H225.492ZM225.352 30.9711C226.25 30.9711 226.761 30.4756 226.761 29.7477C226.761 29.0199 226.25 28.5089 225.352 28.5089H223.866V30.9711H225.352Z" fill="black"/>
<path d="M228.914 28.1527C228.914 25.675 230.788 23.7858 233.358 23.7858C235.913 23.7858 237.803 25.675 237.803 28.1527C237.803 30.6304 235.913 32.5196 233.358 32.5196C230.788 32.5196 228.914 30.6304 228.914 28.1527ZM236.254 28.1527C236.254 26.4648 235 25.2105 233.358 25.2105C231.686 25.2105 230.447 26.4648 230.447 28.1527C230.447 29.8406 231.701 31.095 233.358 31.095C235.015 31.0795 236.254 29.8406 236.254 28.1527Z" fill="black"/>
<path d="M237.958 23.9407H244.307V25.3653H241.891V32.3338H240.373V25.3653H237.958V23.9407Z" fill="black"/>
<path d="M250.16 32.3493L247.682 28.7412H246.738V32.3493H245.22V23.9561H246.738V27.332H247.729L249.974 23.9561H251.755L248.968 28.0134L252.003 32.3493H250.16Z" fill="black"/>
<path d="M254.109 29.7013L257.965 23.9407H259.405V32.3338H257.887V26.5732L254.031 32.3338H252.591V23.9407H254.109V29.7013Z" fill="black"/>
</g>
</g>
<defs>
<clipPath id="clip0_13_38">
<rect width="260" height="41.78" fill="white"/>
</clipPath>
<clipPath id="clip1_13_38">
<rect width="259.925" height="41.78" fill="white" transform="translate(0.0375977)"/>
</clipPath>
</defs>
</svg>
