<svg width="1160" height="278" viewBox="0 0 1160 278" fill="none" xmlns="http://www.w3.org/2000/svg">
<g clip-path="url(#clip0_16_395)">
<g clip-path="url(#clip1_16_395)">
<path d="M259.649 193.504C246.708 208.603 230.274 216.101 210.246 216.101C181.796 216.101 163.308 200.694 163.308 177.482C163.308 153.653 180.871 137.939 210.554 131.776C220.106 129.619 236.232 127.462 259.033 124.997V113.905C259.033 96.9576 244.551 84.2217 224.42 84.2217C205.008 84.2217 191.039 93.7737 191.039 106.51C191.039 108.05 191.348 109.283 191.656 110.515L168.443 115.035C167.519 112.569 167.211 109.488 167.211 105.791C167.211 80.4214 191.964 61.6256 226.166 61.6256C259.238 61.6256 283.581 82.3729 283.581 110.721V183.644C283.581 189.807 287.894 194.429 294.057 194.429C302.376 194.429 308.231 183.644 308.231 169.06L329.286 173.99C329.286 198.126 312.955 215.998 291.592 215.998C275.364 216.101 262.422 206.754 259.649 193.504ZM259.033 171.011V143.793C236.437 146.566 220.106 149.339 209.938 152.113C196.688 155.81 188.882 164.746 188.882 174.709C188.882 186.726 198.434 194.84 213.019 194.84C231.199 194.737 248.146 185.801 259.033 171.011Z" fill="#F15330"/>
<path d="M568.907 168.238L538.095 76.7239V213.019H515.807V64.7069H559.664L589.347 153.961L618.105 64.7069H661.654V213.019H639.366V77.032L607.218 168.238H568.907Z" fill="#F15330"/>
<path d="M804.625 213.019V77.032L740.329 213.019H702.635V64.7069H726.155V190.423L786.343 64.7069H828.043V213.019H804.625Z" fill="#F15330"/>
<path d="M978.102 213.019L920.379 149.956H893.469C893.469 185.493 893.469 206.446 893.777 213.019H869.024C869.332 198.229 869.332 173.476 869.332 138.863C869.332 104.25 869.332 79.5998 869.024 64.7069H893.777C893.469 77.3402 893.469 98.0875 893.469 127.154H920.995L976.869 64.7069H1007.78L943.18 136.706L1012.71 213.019H978.102Z" fill="#F15330"/>
<path d="M1156.71 170.395C1145.93 198.537 1119.64 216.101 1088.41 216.101C1046.1 216.101 1014.56 184.261 1014.56 138.863C1014.56 93.7736 1046.1 61.6256 1088.41 61.6256C1123.64 61.6256 1151.78 83.2973 1159.79 116.883L1136.99 124.278C1131.75 101.066 1112.55 85.9677 1088.82 85.9677C1060.06 85.9677 1038.8 108.256 1038.8 138.76C1038.8 169.368 1060.17 191.553 1088.82 191.553C1109.57 191.553 1126.82 179.536 1134.22 160.021L1156.71 170.395Z" fill="#F15330"/>
<path d="M103.018 212.814V148.518H25.1639V212.814H0.410889V64.5015H25.1639V125.716H103.018V64.5015H127.668V212.814H103.018Z" fill="#F15330"/>
<path d="M82.4755 258.519C82.4755 268.688 74.2588 276.904 64.0906 276.904C53.9223 276.904 45.7056 268.688 45.7056 258.519C45.7056 248.351 53.9223 240.135 64.0906 240.135C74.2588 240.135 82.4755 248.351 82.4755 258.519Z" fill="#F15330"/>
<path d="M82.4755 18.8985C82.4755 29.0668 74.2588 37.2835 64.0906 37.2835C53.9223 37.2835 45.7056 29.0668 45.7056 18.8985C45.7056 8.7303 53.9223 0.51355 64.0906 0.51355C74.2588 0.51355 82.4755 8.7303 82.4755 18.8985Z" fill="#F15330"/>
<path d="M448.429 0.410889C448.429 21.0555 431.79 37.3863 411.146 37.3863C391.117 37.3863 373.862 21.0555 373.862 0.410889H393.069C393.069 23.9313 429.12 23.9313 429.12 0.410889H448.429Z" fill="#F15330"/>
<path d="M450.381 213.327V77.4429L386.187 213.327H348.493V65.015H371.911V190.731L432.201 65.015H473.901V213.327H450.381Z" fill="#F15330"/>
</g>
</g>
<defs>
<clipPath id="clip0_16_395">
<rect width="1160" height="277.11" fill="white"/>
</clipPath>
<clipPath id="clip1_16_395">
<rect width="1160" height="277.11" fill="white"/>
</clipPath>
</defs>
</svg>
